<?xml version="1.0" encoding="UTF-8" standalone="no"?>
<!-- Created with Inkscape (http://www.inkscape.org/) -->

<svg
   width="24.491894mm"
   height="20.793177mm"
   viewBox="0 0 24.491894 20.793177"
   version="1.1"
   id="svg1"
   inkscape:version="1.4-beta (62f545ba5e, 2024-04-22)"
   sodipodi:docname="drawing.svg"
   xmlns:inkscape="http://www.inkscape.org/namespaces/inkscape"
   xmlns:sodipodi="http://sodipodi.sourceforge.net/DTD/sodipodi-0.dtd"
   xmlns="http://www.w3.org/2000/svg"
   xmlns:svg="http://www.w3.org/2000/svg">
  <sodipodi:namedview
     id="namedview1"
     pagecolor="#ffffff"
     bordercolor="#000000"
     borderopacity="0.25"
     inkscape:showpageshadow="2"
     inkscape:pageopacity="0.0"
     inkscape:pagecheckerboard="0"
     inkscape:deskcolor="#d1d1d1"
     inkscape:document-units="mm"
     inkscape:zoom="1.4520903"
     inkscape:cx="8.2639486"
     inkscape:cy="34.088788"
     inkscape:window-width="1920"
     inkscape:window-height="1009"
     inkscape:window-x="-8"
     inkscape:window-y="-8"
     inkscape:window-maximized="1"
     inkscape:current-layer="layer1" />
  <defs
     id="defs1">
    <clipPath
       clipPathUnits="userSpaceOnUse"
       id="clipPath11">
      <path
         id="rect12"
         d="m -18.05571,-62.317524 h 250.51146 c 11.04883,0 19.94373,8.894905 19.94373,19.943733 V 378.58078 c 0,11.04883 -8.8949,19.94374 -19.94373,19.94374 H -18.05571 c -11.048828,0 -19.943733,-8.89491 -19.943733,-19.94374 V -42.373791 c 0,-11.048828 8.894905,-19.943733 19.943733,-19.943733 z"
         style="display:inline;fill:#3250c8;fill-opacity:1;stroke:none;stroke-width:4.52149;stroke-dasharray:none;stroke-opacity:1;paint-order:markers stroke fill" />
    </clipPath>
    <clipPath
       clipPathUnits="userSpaceOnUse"
       id="clipPath9">
      <rect
         style="display:inline;fill:#3250c8;fill-opacity:1;stroke:none;stroke-width:11.769;stroke-dasharray:none;stroke-opacity:1;paint-order:markers stroke fill"
         id="rect10"
         width="755.88"
         height="1199.5267"
         x="-53.900265"
         y="-150.39484"
         ry="51.911587" />
    </clipPath>
    <clipPath
       clipPathUnits="userSpaceOnUse"
       id="clipPath17">
      <rect
         style="display:inline;fill:#3250c8;fill-opacity:1;stroke:none;stroke-width:11.7692;stroke-dasharray:none;stroke-opacity:1;paint-order:markers stroke fill"
         id="rect18"
         width="755.90204"
         height="1199.5267"
         x="-53.901806"
         y="-150.39484"
         ry="51.911587"
         transform="matrix(0.99998543,0.00539783,0,1,0,0)" />
    </clipPath>
    <clipPath
       clipPathUnits="userSpaceOnUse"
       id="clipPath16">
      <rect
         style="display:inline;fill:#3250c8;fill-opacity:1;stroke:none;stroke-width:11.7692;stroke-dasharray:none;stroke-opacity:1;paint-order:markers stroke fill"
         id="rect17"
         width="755.90204"
         height="1199.5267"
         x="-53.901806"
         y="-150.39484"
         ry="51.911587"
         transform="matrix(0.99998543,0.00539783,0,1,0,0)" />
    </clipPath>
    <clipPath
       clipPathUnits="userSpaceOnUse"
       id="clipPath2">
      <rect
         style="display:inline;fill:#3250c8;fill-opacity:1;stroke:none;stroke-width:11.769;stroke-dasharray:none;stroke-opacity:1;paint-order:markers stroke fill"
         id="rect3"
         width="755.88"
         height="1199.5267"
         x="-53.900265"
         y="-150.39484"
         ry="51.911587" />
    </clipPath>
  </defs>
  <g
     inkscape:label="Layer 1"
     inkscape:groupmode="layer"
     id="layer1"
     transform="translate(-140.75833,-185.75231)">
    <path
       id="path192"
       style="fill:#ffffff;stroke-width:0.136451;stroke-linecap:round"
       d="m 151.93572,192.01323 c -0.52952,0.0511 -0.96593,0.43733 -1.08101,0.95671 -0.29428,1.32846 -0.6293,2.65436 -0.74119,3.93816 0.2181,0.0144 0.44078,0.0361 0.66531,0.0742 0.63084,0.10709 1.3236,0.2562 1.84433,0.68686 0.0346,-1.12156 0.27329,-2.55945 0.62958,-4.16785 0.14672,-0.66227 -0.27129,-1.31806 -0.93358,-1.46466 -0.12579,-0.0279 -0.25519,-0.0358 -0.38344,-0.0234 z m -1.85732,5.57483 c -0.0143,0.75109 0.0643,1.48522 0.29508,2.19346 0.0745,0.22865 0.16671,0.44492 0.27225,0.64955 0.10114,0.17526 0.1993,0.34149 0.29467,0.48982 0.17685,0.2545 0.3778,0.48206 0.59344,0.6857 0.95791,0.8106 2.50145,1.2477 2.50145,1.2477 0.026,0.007 0.0511,0.0174 0.0746,0.0305 0.19107,0.0428 0.38163,0.0793 0.56999,0.10945 1.6522,0.26471 3.17474,0.0643 4.42317,-0.67341 1.24852,-0.73775 1.9015,-1.80447 2.48977,-2.74318 0.36002,-0.57472 0.18602,-1.33248 -0.38866,-1.69258 -0.56352,-0.35005 -1.30318,-0.1893 -1.67057,0.36307 -0.11594,0.17706 -0.22228,0.35193 -0.29405,0.45778 -0.0247,0.0364 -0.0493,0.0711 -0.0738,0.1072 -0.41446,0.63083 -0.77139,1.07367 -1.31231,1.3933 -0.0273,0.0161 -0.0567,0.0292 -0.0845,0.0445 -0.001,7.9e-4 -0.003,0.002 -0.004,0.002 -0.0215,0.0118 -0.0437,0.0227 -0.0654,0.0342 -0.0441,0.0229 -0.0875,0.0468 -0.1331,0.0677 -0.81275,0.39439 -1.77868,0.56237 -2.65267,0.45174 -0.94621,-0.11978 -1.82899,-0.60915 -2.1138,-1.54822 -0.001,-0.004 -0.003,-0.007 -0.004,-0.0112 -0.0311,-0.0707 -0.0609,-0.14478 -0.0876,-0.22689 -0.002,-0.006 -0.003,-0.0133 -0.005,-0.0195 -0.37084,-0.8481 -1.15797,-1.19676 -2.03885,-1.3463 -0.20069,-0.0341 -0.39622,-0.0545 -0.58618,-0.0669 z"
       sodipodi:nodetypes="cccscccccscccccsscccscsssccsscscsc" />
    <path
       style="fill:#ffffff;stroke-width:0.0524226;stroke-linecap:round"
       d="m 155.04627,186.74116 a 0.34112767,0.34112767 0 0 0 -0.25874,0.0353 l -7.55317,4.40596 a 0.34112767,0.34112767 0 0 0 -0.12276,0.46658 0.34112767,0.34112767 0 0 0 0.46648,0.12277 l 7.55327,-4.40607 a 0.34112767,0.34112767 0 0 0 0.12277,-0.46648 0.34112767,0.34112767 0 0 0 -0.20785,-0.15809 z"
       id="path193" />
    <g
       id="path194"
       clip-path="url(#clipPath11)"
       transform="matrix(0.13645118,0,0,0.13645118,138.56694,180.15152)"
       style="fill:#ffffff">
      <path
         id="path26"
         style="fill:#ffffff;stroke-linecap:round"
         d="m 162.61943,94.554519 c -15.93785,-0.242596 -28.01273,11.241891 -32.32045,24.136971 -3.34467,10.01221 -0.62712,18.88751 2.86189,26.39182 1.80898,-0.57254 3.5514,-1.28045 5.12875,-2.1468 3.9518,-2.17048 6.08833,-5.36142 9.07415,-9.76449 0.0264,-0.039 0.10998,-0.17472 0.14332,-0.22586 -0.98958,-2.98596 -1.13626,-5.55709 -0.13581,-8.5519 1.91687,-5.73811 8.77182,-11.93591 14.97427,-11.8415 6.20292,0.0944 13.2181,5.97096 14.81669,13.9958 1.59868,8.02531 -2.61065,17.69169 -8.93759,26.20572 -6.32695,8.51402 -11.72946,12.43351 -19.18381,17.9097 a 8.9997997,8.9997997 0 0 0 -1.92544,12.58211 8.9997997,8.9997997 0 0 0 12.58211,1.92393 c 7.45435,-5.47619 15.1974,-11.21384 22.97466,-21.67953 7.77728,-10.46569 15.29762,-24.61828 12.14239,-40.45739 -3.15532,-15.83958 -16.25774,-28.235991 -32.19513,-28.478581 z m -12.7622,43.810771 c -2.41965,3.4693 -4.99689,6.66691 -9.1612,8.9541 -1.66807,0.91617 -3.44746,1.68324 -5.28556,2.31638 0.27536,0.53078 0.55488,1.08094 0.8239,1.59452 a 8.9997997,8.9997997 0 0 0 12.1484,3.79684 8.9997997,8.9997997 0 0 0 3.79684,-12.14839 c -0.87524,-1.67092 -1.6333,-3.13487 -2.32238,-4.51345 z" />
    </g>
    <path
       id="path197"
       style="fill:#ffffff;stroke-width:0.136451;stroke-linecap:round"
       d="m 147.44467,190.34635 a 1.2280607,1.2280607 0 0 0 -0.60409,0.19781 c -1.72142,1.12409 -3.34665,2.17941 -4.46791,3.07042 -0.56063,0.44551 -0.99458,0.79003 -1.33924,1.36217 -0.17233,0.28607 -0.39105,0.74583 -0.20252,1.3464 0.18853,0.60058 0.73882,0.91469 1.10303,1.0202 0.72831,0.211 1.28337,0.12021 2.03291,0.0538 0.74954,-0.0665 1.61255,-0.17622 2.51537,-0.2702 0.53218,-0.0554 1.07892,-0.0999 1.61743,-0.12993 0.0303,-0.0112 0.06,-0.019 0.0852,-0.0214 0.40903,-0.0388 1.49759,-0.17937 2.594,0.007 0.3147,0.0534 0.63535,0.13917 0.9428,0.26375 0.6073,0.20025 0.9285,0.45906 1.09934,0.72562 0.27513,0.28754 0.49721,0.64456 0.63204,1.08911 0.19215,0.63355 0.76543,0.97056 1.54657,1.06944 0.0356,0.005 0.073,0.005 0.10925,0.009 0.30002,-0.65333 0.42096,-1.36804 0.31228,-2.08391 -0.22708,-1.49575 -1.49226,-2.77345 -3.33775,-3.26341 -1.84546,-0.48996 -3.98116,-0.30303 -5.85547,-0.10792 -0.50638,0.0527 -0.89307,0.0943 -1.33893,0.14416 0.92609,-0.6593 2.03276,-1.40314 3.29464,-2.22714 a 1.2280607,1.2280607 0 0 0 0.35652,-1.69975 1.2280607,1.2280607 0 0 0 -0.77579,-0.53037 1.2280607,1.2280607 0 0 0 -0.31966,-0.0244 z m 5.35828,8.92067 c -0.13708,0.23565 -0.34739,0.47316 -0.6599,0.6904 -0.3478,0.24178 -0.84275,0.4215 -1.45268,0.55075 0.18853,0.32487 0.36276,0.60984 0.5445,0.81306 0.41122,0.45981 1.0402,0.82086 1.59859,1.07764 0.24575,-0.12613 0.48374,-0.26624 0.7117,-0.42471 0.47962,-0.33342 0.88413,-0.74036 1.19733,-1.19313 -0.87691,-0.15443 -1.66952,-0.63727 -1.93954,-1.51401 z m -9.83837,1.35541 a 1.2280607,1.2280607 0 0 0 -1.30914,1.14142 1.2280607,1.2280607 0 0 0 1.14173,1.30904 c 3.32776,0.22732 6.63008,0.60751 9.20121,-0.31352 -0.45275,-0.25456 -0.91004,-0.57852 -1.27207,-0.98333 -0.29357,-0.32827 -0.52602,-0.7322 -0.76126,-1.14706 -1.81658,0.24624 -4.34219,0.17504 -7.00047,-0.007 z" />
    <circle
       style="fill:#ffffff;fill-opacity:1;stroke:none;stroke-width:7.80868;stroke-linecap:round;stroke-dasharray:none"
       id="circle197"
       cx="378.72958"
       cy="130.89622"
       r="12.24546"
       clip-path="url(#clipPath9)"
       transform="matrix(0.05242271,0,0,0.05242271,136.20747,179.53232)" />
    <path
       style="fill:#ffffff;stroke-width:0.136451;stroke-linecap:round"
       d="m 154.89658,203.71973 c -0.77564,-0.0431 -1.46265,0.083 -2.14404,0.19748 a 1.2280607,1.2280607 0 0 0 -1.00766,1.41462 1.2280607,1.2280607 0 0 0 1.41461,1.00765 c 0.6814,-0.11444 1.1961,-0.18986 1.60064,-0.16736 0.4046,0.0225 0.68078,0.1203 1.17929,0.30035 a 1.2280607,1.2280607 0 0 0 1.57212,-0.73769 1.2280607,1.2280607 0 0 0 -0.73769,-1.57238 c -0.49851,-0.18006 -1.10169,-0.39954 -1.87727,-0.44267 z"
       id="path198" />
    <path
       style="fill:#ffffff;stroke-width:0.0524226;stroke-linecap:round"
       d="m 160.59663,197.69833 a 1.2280597,1.2280597 0 0 0 -1.08511,0.57511 c -0.58827,0.9387 -0.97297,1.52795 -1.65808,1.93278 -0.68519,0.40489 -1.534,0.5633 -2.78505,0.36287 -0.62551,-0.10022 -1.17318,-0.2753 -1.55937,-0.51901 -0.38621,-0.24371 -0.63336,-0.51702 -0.80037,-1.02951 a 1.2280597,1.2280597 0 0 0 -1.54821,-0.78706 1.2280597,1.2280597 0 0 0 -0.78706,1.54811 c 0.34086,1.04598 1.03436,1.84667 1.82486,2.34551 0.7905,0.49883 1.65546,0.73476 2.48158,0.86712 1.6522,0.26471 3.17474,0.0643 4.42317,-0.67341 1.24852,-0.73775 1.9015,-1.80437 2.48977,-2.74307 a 1.2280597,1.2280597 0 0 0 -0.38846,-1.69279 1.2280597,1.2280597 0 0 0 -0.60767,-0.18665 z"
       id="path199" />
    <path
       style="fill:#ffffff;stroke-width:0.0524226;stroke-linecap:round"
       d="m 164.16434,189.40039 a 0.37288799,0.37288799 0 0 0 -0.33204,0.40965 c 0.0562,0.53764 -0.0557,1.0643 -0.34096,1.40487 -0.28529,0.34057 -0.74832,0.56057 -1.61005,0.44467 a 0.37288799,0.37288799 0 0 0 -0.41928,0.31986 0.37288799,0.37288799 0 0 0 0.31986,0.41928 c 1.03657,0.13942 1.82324,-0.15826 2.28111,-0.70484 0.45786,-0.54658 0.58264,-1.27656 0.51102,-1.96145 a 0.37288799,0.37288799 0 0 0 -0.40966,-0.33204 z"
       id="path201" />
    <path
       style="fill:#ffffff;stroke-width:0.0524226;stroke-linecap:round"
       d="m 162.63743,187.8619 a 0.39553983,0.39553983 0 0 0 -0.3686,0.42072 l 0.1543,2.33229 a 0.39553983,0.39553983 0 0 0 0.42081,0.3686 0.39553983,0.39553983 0 0 0 0.3686,-0.42081 l -0.1543,-2.3323 a 0.39553983,0.39553983 0 0 0 -0.42081,-0.3685 z"
       id="path202" />
    <path
       style="fill:#ffffff;stroke-width:0.0524226;stroke-linecap:round"
       d="m 160.1498,188.82712 c -0.094,-0.002 -0.17442,-4e-4 -0.23098,5.9e-4 -0.0283,4e-4 -0.0509,7.9e-4 -0.0624,7.9e-4 -0.0115,-5e-5 -0.0291,-0.008 0.0369,0.006 a 0.3834931,0.3834931 0 0 0 -0.45296,0.29825 0.3834931,0.3834931 0 0 0 0.29825,0.45297 c 0.0802,0.0165 0.089,0.01 0.11458,0.01 0.0256,1.1e-4 0.0506,-3.9e-4 0.0789,-7.9e-4 0.0567,-9.9e-4 0.12532,-0.002 0.20314,-7.9e-4 0.15563,0.003 0.34684,0.0178 0.51276,0.0595 0.16591,0.0417 0.29647,0.1097 0.36706,0.18604 0.0706,0.0763 0.11712,0.16019 0.0955,0.38313 l -0.002,0.0173 -1e-4,0.0174 c -2e-5,0.003 7.9e-4,0.0301 -0.0774,0.0932 -0.0781,0.0631 -0.22286,0.13534 -0.39819,0.17999 -0.35064,0.0893 -0.81162,0.066 -1.12719,-0.10085 a 0.3834931,0.3834931 0 0 0 -0.51829,0.15973 0.3834931,0.3834931 0 0 0 0.15973,0.51829 c 0.53695,0.28396 1.15692,0.29804 1.67507,0.16607 0.25907,-0.066 0.49576,-0.16908 0.69081,-0.32662 0.19206,-0.15512 0.35404,-0.38946 0.36061,-0.67259 0.0314,-0.38389 -0.0851,-0.72795 -0.2958,-0.95579 -0.21481,-0.23231 -0.48943,-0.34534 -0.74334,-0.40914 -0.2539,-0.0638 -0.49712,-0.0789 -0.68507,-0.0824 z"
       id="path203" />
    <path
       style="fill:#ffffff;stroke-width:0.0524226;stroke-linecap:round"
       d="m 155.86333,188.66115 c -0.0763,0.006 -0.15258,0.0209 -0.22761,0.0458 -0.30015,0.0996 -0.53278,0.33522 -0.7115,0.64208 -0.14973,0.2571 -0.19848,0.55474 -0.12901,0.81572 0.0695,0.26099 0.23665,0.4673 0.43372,0.62324 0.1725,0.1365 0.37492,0.2378 0.59047,0.31628 -0.29084,0.28547 -0.70692,0.50651 -1.27053,0.56252 a 0.39553983,0.39553983 0 0 0 -0.35447,0.43279 0.39553983,0.39553983 0 0 0 0.43269,0.35447 c 0.95916,-0.0953 1.6549,-0.58743 2.06701,-1.17757 0.004,1.6e-4 0.008,0.001 0.0114,0.001 0.5485,0.0228 1.12668,-0.0904 1.55773,-0.46484 0.43105,-0.37443 0.63028,-1.02573 0.43505,-1.78626 a 0.39553983,0.39553983 0 0 0 -0.48154,-0.28485 0.39553983,0.39553983 0 0 0 -0.28474,0.48154 c 0.14406,0.56114 0.0241,0.80848 -0.18757,0.99234 -0.15257,0.13253 -0.3982,0.2219 -0.67484,0.25628 0.0668,-0.25708 0.0901,-0.51407 0.056,-0.75829 -0.0513,-0.3669 -0.24454,-0.72884 -0.59845,-0.90716 -0.2043,-0.10293 -0.43473,-0.16347 -0.66378,-0.14528 z m 0.13095,0.78797 c 0.045,0.007 0.10128,0.0256 0.17683,0.0637 0.0805,0.0406 0.14504,0.1247 0.17098,0.31034 0.0218,0.15576 -0.003,0.36679 -0.0795,0.58576 -0.22367,-0.06 -0.42181,-0.14554 -0.54286,-0.24133 -0.10141,-0.0802 -0.1461,-0.15396 -0.16003,-0.20631 -0.0139,-0.0524 -0.0176,-0.10147 0.048,-0.2142 0.11874,-0.20388 0.21589,-0.26905 0.27706,-0.28935 0.0306,-0.0101 0.0644,-0.0154 0.10945,-0.009 z"
       id="path204" />
    <ellipse
       style="fill:#ffffff;fill-opacity:1;stroke:none;stroke-width:5.55327;stroke-linecap:round;stroke-dasharray:none;stroke-opacity:1"
       id="circle204"
       cx="417.20767"
       cy="241.00784"
       transform="matrix(0.05242195,-2.8297367e-4,0,0.05242271,136.20747,179.53232)"
       rx="8.7086353"
       ry="8.7085085"
       clip-path="url(#clipPath17)" />
    <ellipse
       style="fill:#ffffff;fill-opacity:1;stroke:none;stroke-width:5.55327;stroke-linecap:round;stroke-dasharray:none;stroke-opacity:1"
       id="circle205"
       cx="399.22238"
       cy="241.00784"
       transform="matrix(0.05242195,-2.8297367e-4,0,0.05242271,136.20747,179.53232)"
       rx="8.7086353"
       ry="8.7085085"
       clip-path="url(#clipPath16)" />
    <path
       style="-inkscape-font-specification:'KFGQPC Uthman Taha Naskh';fill:#ffffff;stroke-width:0.164144;stroke-linecap:round"
       d="m 164.80937,201.1004 q 0.0578,0 0.0851,0.0221 0.0278,0.0217 0.0278,0.066 0,0.0248 -0.009,0.0412 -0.009,0.0165 -0.0235,0.0265 -0.0139,0.01 -0.0295,0.0152 l 0.0851,0.13898 h -0.0456 l -0.0751,-0.12812 h -0.0617 v 0.12812 h -0.0391 v -0.31009 z m -0.002,0.0339 h -0.0443 v 0.11509 h 0.0465 q 0.0378,0 0.0551,-0.0148 0.0174,-0.0152 0.0174,-0.0443 0,-0.0304 -0.0182,-0.043 -0.0182,-0.013 -0.0565,-0.013 z"
       id="text205"
       aria-label="R" />
    <path
       style="fill:#ffffff;stroke-width:0.0524226;stroke-linecap:round"
       d="m 164.82136,201.00813 c -0.13434,0 -0.24378,0.10934 -0.24378,0.24368 0,0.13434 0.10944,0.24379 0.24378,0.24379 0.13435,0 0.24369,-0.10945 0.24369,-0.24379 0,-0.13434 -0.10934,-0.24368 -0.24369,-0.24368 z m 0,0.045 c 0.11007,0 0.19874,0.0887 0.19874,0.19873 0,0.11007 -0.0887,0.19884 -0.19874,0.19884 -0.11006,0 -0.19883,-0.0888 -0.19883,-0.19884 0,-0.11007 0.0888,-0.19873 0.19883,-0.19873 z"
       id="circle206" />
    <path
       id="path206"
       style="font-weight:bold;font-size:16.5528px;line-height:1.3;font-family:'Readex Pro';-inkscape-font-specification:'Readex Pro Bold';text-align:center;direction:rtl;text-anchor:middle;fill:#ffffff;fill-opacity:1;stroke-width:0.0999091;stroke-linecap:round"
       d="m 228.03921,347.71448 c -0.33836,0 -0.62511,0.11805 -0.86196,0.35494 -0.20301,0.20298 -0.30582,0.47449 -0.30582,0.81284 v 33.70061 c 0,0.33835 0.10281,0.6251 0.30582,0.86197 0.23686,0.20298 0.5236,0.30416 0.86196,0.30416 h 2.38625 c 0.33836,0 0.60825,-0.10118 0.81126,-0.30416 0.23686,-0.23671 0.35493,-0.52362 0.35493,-0.86197 V 372.0761 l 11.31804,10.811 c 0.3722,0.33835 0.6774,0.57451 0.91425,0.70985 0.23687,0.10149 0.60953,0.15208 1.11707,0.15208 h 2.63818 c 0.30454,0 0.55913,-0.10118 0.76215,-0.30416 0.20301,-0.20299 0.30422,-0.45604 0.30422,-0.76057 0,-0.27074 -0.20243,-0.57589 -0.60844,-0.91424 l -12.99286,-12.63792 11.72368,-9.74464 c 0.23686,-0.16925 0.38866,-0.33786 0.45633,-0.50706 0.10152,-0.16925 0.15211,-0.32256 0.15211,-0.4579 0,-0.30447 -0.10121,-0.55755 -0.30422,-0.76057 -0.20302,-0.20298 -0.45604,-0.30416 -0.76056,-0.30416 h -2.69047 c -0.50754,0 -0.88022,0.0675 -1.11707,0.20267 -0.20301,0.10149 -0.50664,0.32079 -0.91267,0.65914 l -9.99974,8.32493 V 348.8822 c 0,-0.33835 -0.11808,-0.60983 -0.35493,-0.81284 -0.20301,-0.23702 -0.4729,-0.35494 -0.81126,-0.35494 z m -73.6568,9.13462 c -1.82713,0 -3.38373,0.25449 -4.6695,0.76213 -1.25193,0.47372 -2.28404,1.06568 -3.0961,1.77624 -0.81206,0.71056 -1.42089,1.43746 -1.82692,2.18183 -0.3722,0.74441 -0.55775,1.37169 -0.55775,1.87921 0,0.30447 0.0844,0.57441 0.25352,0.81128 0.20301,0.20298 0.49135,0.30416 0.86355,0.30416 h 2.28325 c 0.50754,0 0.86335,-0.25296 1.06637,-0.76056 0.37219,-0.94742 1.01476,-1.72651 1.92833,-2.33555 0.9474,-0.60903 2.18193,-0.91268 3.70455,-0.91268 2.09782,0 3.60382,0.45702 4.51739,1.37059 0.9474,0.91357 1.42129,2.18183 1.42129,3.80596 v 1.47201 l -7.56279,1.06636 c -3.04523,0.43987 -5.51429,1.35231 -7.4091,2.73957 -1.89481,1.3873 -2.84258,3.24908 -2.84258,5.58377 0,1.45493 0.42328,2.75696 1.26918,3.90736 0.8459,1.15043 1.96235,2.06446 3.34962,2.74117 1.38727,0.67673 2.92701,1.01567 4.6188,1.01567 1.62412,0 2.9936,-0.18704 4.11018,-0.55933 1.11658,-0.40603 2.04749,-0.89677 2.79188,-1.47199 0.74439,-0.60903 1.33635,-1.21788 1.77622,-1.82692 v 2.18343 c 0,0.33835 0.10121,0.6251 0.30422,0.86196 0.20301,0.20299 0.49136,0.30417 0.86355,0.30417 h 2.33396 c 0.33836,0 0.60983,-0.10118 0.81285,-0.30417 0.23686,-0.23671 0.35492,-0.52361 0.35492,-0.86196 v -16.44548 c 0,-1.1504 -0.18553,-2.28372 -0.55774,-3.4003 -0.33836,-1.11658 -0.91345,-2.11496 -1.72551,-2.99471 -0.77823,-0.87972 -1.86253,-1.57289 -3.2498,-2.08044 -1.38727,-0.54136 -3.09568,-0.81284 -5.12584,-0.81284 z m 54.47175,0 c -1.82714,0 -3.38374,0.25449 -4.66951,0.76213 -1.25193,0.47372 -2.28404,1.06568 -3.0961,1.77624 -0.81206,0.71056 -1.42089,1.43746 -1.82692,2.18183 -0.3722,0.74441 -0.55774,1.37169 -0.55774,1.87921 0,0.30447 0.0844,0.57441 0.25351,0.81128 0.20301,0.20298 0.49135,0.30416 0.86355,0.30416 h 2.28325 c 0.50754,0 0.86335,-0.25296 1.06637,-0.76056 0.3722,-0.94742 1.01476,-1.72651 1.92833,-2.33555 0.9474,-0.60903 2.18193,-0.91268 3.70455,-0.91268 2.09782,0 3.60382,0.45702 4.51739,1.37059 0.9474,0.91357 1.42129,2.18183 1.42129,3.80596 v 1.47201 l -7.56279,1.06636 c -3.04523,0.43987 -5.51428,1.35231 -7.4091,2.73957 -1.89481,1.3873 -2.84258,3.24908 -2.84258,5.58377 0,1.45493 0.42329,2.75696 1.26918,3.90736 0.8459,1.15043 1.96235,2.06446 3.34962,2.74117 1.38728,0.67673 2.92701,1.01567 4.6188,1.01567 1.62413,0 2.9936,-0.18704 4.11018,-0.55933 1.11659,-0.40603 2.04749,-0.89677 2.79188,-1.47199 0.74439,-0.60903 1.33635,-1.21788 1.77622,-1.82692 v 2.18343 c 0,0.33835 0.10121,0.6251 0.30422,0.86196 0.20302,0.20299 0.49136,0.30417 0.86355,0.30417 h 2.33396 c 0.33836,0 0.60983,-0.10118 0.81285,-0.30417 0.23686,-0.23671 0.35493,-0.52361 0.35493,-0.86196 v -16.44548 c 0,-1.1504 -0.18554,-2.28372 -0.55775,-3.4003 -0.33836,-1.11658 -0.91503,-2.11496 -1.72709,-2.99471 -0.77823,-0.87972 -1.86094,-1.57289 -3.24822,-2.08044 -1.38727,-0.54136 -3.09568,-0.81284 -5.12584,-0.81284 z m -105.31975,0.50862 c -0.27068,0 -0.52529,0.10118 -0.76214,0.30416 -0.20301,0.20298 -0.30423,0.45604 -0.30423,0.76057 0,0.16925 0.0337,0.33943 0.1014,0.50862 l 7.20787,23.54875 c 0.16919,0.40602 0.37159,0.72809 0.60844,0.96495 0.23686,0.20299 0.5758,0.30417 1.01566,0.30417 h 1.97904 c 0.4737,0 0.84479,-0.10118 1.11548,-0.30417 0.27068,-0.23671 0.47469,-0.55893 0.61003,-0.96495 l 5.8864,-18.16941 5.88798,18.16941 c 0.10152,0.40602 0.28865,0.72809 0.55932,0.96495 0.30454,0.20299 0.67562,0.30417 1.11549,0.30417 h 1.97903 c 0.4737,0 0.82952,-0.10118 1.06637,-0.30417 0.27068,-0.23671 0.45623,-0.55893 0.55774,-0.96495 l 7.20786,-23.54875 c 0.0677,-0.16926 0.1014,-0.33946 0.1014,-0.50862 0,-0.30447 -0.10121,-0.55756 -0.30423,-0.76057 -0.20301,-0.20298 -0.45762,-0.30416 -0.76214,-0.30416 h -2.23255 c -0.3722,0 -0.66053,0.10118 -0.86355,0.30416 -0.20301,0.20298 -0.32109,0.38858 -0.35493,0.55774 l -5.63287,19.13436 -6.04009,-18.93153 c -0.0338,-0.23671 -0.16877,-0.47302 -0.40564,-0.70985 -0.23686,-0.23702 -0.57579,-0.35494 -1.01566,-0.35494 h -1.72551 c -0.43987,0 -0.77881,0.11804 -1.01566,0.35494 -0.20301,0.23671 -0.33796,0.47299 -0.40563,0.70985 l -6.04009,18.93153 -5.63288,-19.13436 c -0.0677,-0.16925 -0.20261,-0.35473 -0.40563,-0.55774 -0.20301,-0.20298 -0.49136,-0.30416 -0.86355,-0.30416 z m 67.11759,0 c -0.30453,0 -0.55754,0.10118 -0.76055,0.30416 -0.20302,0.20298 -0.30423,0.45604 -0.30423,0.76057 0,0.16925 0.0844,0.4575 0.25351,0.86353 l 9.69394,22.88961 -3.90737,9.2883 c -0.10149,0.20298 -0.17057,0.37171 -0.20439,0.50705 -0.0338,0.13522 -0.0507,0.27197 -0.0507,0.40722 0,0.27074 0.10281,0.50684 0.30582,0.70985 0.20301,0.20298 0.43916,0.30417 0.70985,0.30417 h 2.38467 c 0.37219,0 0.64366,-0.0843 0.81284,-0.25357 0.20301,-0.16926 0.35483,-0.3716 0.45633,-0.60843 l 14.41415,-33.24429 c 0.16919,-0.43985 0.25351,-0.74506 0.25351,-0.91425 0,-0.27074 -0.10121,-0.50684 -0.30423,-0.70985 -0.20301,-0.20298 -0.45603,-0.30417 -0.76055,-0.30417 h -2.38625 c -0.3722,0 -0.65895,0.0843 -0.86196,0.25358 -0.1692,0.16925 -0.3057,0.37162 -0.40722,0.60845 l -7.91613,18.4752 -7.71491,-18.4752 c -0.0677,-0.23671 -0.2042,-0.43926 -0.40721,-0.60845 -0.20301,-0.16926 -0.4729,-0.25358 -0.81126,-0.25358 z m -10.3816,13.29708 v 1.4213 c 0,1.89481 -0.33895,3.46828 -1.01566,4.72021 -0.64289,1.25192 -1.53847,2.18281 -2.68889,2.79188 -1.15042,0.57519 -2.42027,0.86197 -3.80754,0.86197 -0.91357,0 -1.80915,-0.15178 -2.68889,-0.45634 -0.8459,-0.30448 -1.55752,-0.76155 -2.13273,-1.37059 -0.54137,-0.64289 -0.81126,-1.43727 -0.81126,-2.38466 0,-1.2181 0.60883,-2.21648 1.82692,-2.99471 1.2181,-0.81205 3.02772,-1.38714 5.43006,-1.7255 z m 54.47174,0 v 1.4213 c 0,1.89481 -0.33895,3.46828 -1.01566,4.72021 -0.64289,1.25192 -1.53847,2.18281 -2.68889,2.79188 -1.15042,0.57519 -2.42027,0.86197 -3.80754,0.86197 -0.91357,0 -1.80915,-0.15178 -2.68889,-0.45634 -0.84589,-0.30448 -1.55752,-0.76155 -2.13273,-1.37059 -0.54137,-0.64289 -0.81126,-1.43727 -0.81126,-2.38466 0,-1.2181 0.60883,-2.21648 1.82692,-2.99471 1.2181,-0.81205 3.02772,-1.38714 5.43007,-1.7255 z"
       clip-path="url(#clipPath2)"
       transform="matrix(0.05242271,0,0,0.05242271,136.20747,179.53232)" />
  </g>
</svg>
